# xmcd
#
# Track frame offsets: 
#        150
#        19754
#        36100
#        71702
#        100687
#        123547
#        138904
#        169237
#        190705
#
# Disc length: 2874 seconds
#
# Revision: 0
# Processed by: cddbd v1.5.2PL0 Copyright (c) Steve Scherf et al.
# Submitted via: ExactAudioCopy v0.95b4
#
DISCID=760b3809
DTITLE=Bill Magee - Good Morning Mississippi, Thank You For Being My H
DTITLE=ome
DYEAR=2009
DGENRE=Blues
TTITLE0=Good Morning Mississippi, Thank You For Being My Home
TTITLE1=Willie's Shuffle
TTITLE2=There Was A Time
TTITLE3=A Man And His Guitar
TTITLE4=Listen Girl
TTITLE5=Going Home
TTITLE6=Funky Nassau
TTITLE7=Swing Dance Shuffle
TTITLE8=Bo Diddley
EXTD=
EXTT0=
EXTT1=
EXTT2=
EXTT3=
EXTT4=
EXTT5=
EXTT6=
EXTT7=
EXTT8=
PLAYORDER=
